<svg version="1.2" xmlns="http://www.w3.org/2000/svg" viewBox="0 0 595 842" width="595" height="842">
	<style>
		.s0 { fill: #d28d00;stroke: #754b00;stroke-linecap: round;stroke-linejoin: round;stroke-width: 2.6 } 
		.s1 { fill: none;stroke: #754b00;stroke-linecap: round;stroke-linejoin: round;stroke-width: 2.6 } 
		.s2 { fill: #eebf33;stroke: #754b00;stroke-linecap: round;stroke-linejoin: round;stroke-width: 5.2 } 
		.s3 { fill: #fbd444 } 
		.s4 { fill: none;stroke: #754b00;stroke-linecap: round;stroke-linejoin: round;stroke-width: 5.2 } 
		.s5 { fill: #754b00 } 
		.s6 { fill: #eebf33;stroke: #754b00;stroke-linecap: round;stroke-linejoin: round;stroke-width: 4.5 } 
		.s7 { fill: #eebf33;stroke: #754b00;stroke-linecap: round;stroke-linejoin: round;stroke-width: 5.7 } 
		.s8 { fill: #d4a526 } 
		.s9 { fill: none;stroke: #754b00;stroke-linecap: round;stroke-linejoin: round;stroke-width: 5.7 } 
		.s10 { fill: #d28d00;stroke: #754b00;stroke-linecap: round;stroke-linejoin: round;stroke-width: 5.7 } 
		.s11 { fill: none;stroke: #754b00;stroke-linecap: round;stroke-linejoin: round;stroke-width: 2.3 } 
		.s12 { fill: none;stroke: #754b00;stroke-linecap: round;stroke-linejoin: round;stroke-width: 2.1 } 
		.s13 { fill: #eebf33 } 
	</style>
	<g id="_Artboards_">
	</g>
	<g id="315274262343 1">
		<path id="&lt;Path&gt;" class="s0" d="m524.7 419.26c0 125.09-101.21 234.76-223.36 234.76-122.15 0-220.24-101.1-220.24-226.2 0-125.1 103.25-235.19 225.4-235.19 129.05 0 218.2 101.53 218.2 226.63z"/>
		<path id="&lt;Path&gt;" class="s1" d="m496 531.63l-11-11.26"/>
		<path id="&lt;Path&gt;" class="s1" d="m501.75 519.13l-11-11.26"/>
		<path id="&lt;Path&gt;" class="s1" d="m506.63 506.13l-11-11.26"/>
		<path id="&lt;Path&gt;" class="s1" d="m511.75 493.88l-11-11.26"/>
		<path id="&lt;Path&gt;" class="s1" d="m489.25 542.5l-13.79-13.27"/>
		<path id="&lt;Path&gt;" class="s2" d="m513.95 413.79c0 125.09-99.96 229.94-222.11 229.94-122.15 0-220.24-101.1-220.24-226.2 0-125.1 102.46-227.45 224.61-227.45 129.05 0 217.74 98.61 217.74 223.71z"/>
		<path id="&lt;Path&gt;" class="s3" d="m502.66 416.02c0 115.88-92.6 213-205.75 213-113.16 0-204.02-93.65-204.02-209.54 0-115.88 94.91-210.69 208.07-210.69 119.54 0 201.7 91.34 201.7 207.23z"/>
		<path id="&lt;Path&gt;" class="s2" d="m497.66 414.02c0 115.88-92.6 213-205.75 213-113.16 0-204.02-93.65-204.02-209.54 0-115.88 94.91-210.69 208.07-210.69 119.54 0 201.7 91.34 201.7 207.23z"/>
		<path id="&lt;Path&gt;" class="s4" d="m513.95 413.79c0 125.09-99.96 229.94-222.11 229.94-122.15 0-220.24-101.1-220.24-226.2 0-125.1 102.46-227.45 224.61-227.45 129.05 0 217.74 98.61 217.74 223.71z"/>
		<path id="&lt;Compound Path&gt;" fill-rule="evenodd" class="s5" d="m292.75 536.83v2.96c0 25-19.64 36.25-33.58 36.25h-3c-13.95 0-33.59-11.25-33.59-36.25v-2.96c0-25 19.64-36.25 33.59-36.25h3c13.94 0 33.58 11.25 33.58 36.25zm-34.75-16.74h-0.67c-6.56 0-13.58 4.53-13.58 17.24v1.96c0 12.71 7.02 17.25 13.58 17.25h0.67c6.57 0 13.58-4.54 13.58-17.25v-1.96c0-12.71-7.01-17.24-13.58-17.24z"/>
		<path id="&lt;Path&gt;" class="s5" d="m352.67 531.91h-22.34c-2.35 0-4.25 1.91-4.25 4.26v9.33c0 2.35 1.9 4.25 4.25 4.25h7.25v5.24c-2.31 0.73-5.4 1.55-7.58 1.55h-0.67c-6.56 0-13.58-4.54-13.58-17.25v-1.96c0-12.71 7.02-17.24 13.58-17.24h0.67c4.22 0 8.01 1.92 10.38 5.27 0.78 1.08 2.01 1.75 3.34 1.79 1.36 0.03 2.61-0.55 3.44-1.58l7.62-9.46c1.37-1.7 1.23-4.15-0.31-5.69-6.2-6.16-14.91-9.84-23.3-9.84h-3c-13.95 0-33.59 11.25-33.59 36.25v2.96c0 25 19.64 36.25 33.59 36.25 16.26 0 26.88-9.3 27.33-9.7 0.9-0.81 1.42-1.96 1.42-3.17v-27c0-2.35-1.9-4.26-4.25-4.26z"/>
		<path id="&lt;Path&gt;" class="s5" d="m424.98 504.21c-0.8-1.13-2.09-1.79-3.47-1.79h-13c-1.87 0-3.51 1.21-4.06 3l-12.69 41.34-12.7-41.34c-0.54-1.79-2.19-3-4.06-3h-13c-1.37 0-2.65 0.65-3.45 1.76-0.8 1.11-1.02 2.54-0.58 3.83l21.21 63.5c0.58 1.74 2.2 2.91 4.03 2.91h15.93c1.81 0 3.42-1.14 4.02-2.84l22.36-63.5c0.46-1.3 0.26-2.74-0.54-3.87z"/>
		<path id="&lt;Path&gt;" class="s5" d="m213.83 502.42h-11.33c-2.35 0-4.25 1.9-4.25 4.25v44.16c0 2.01-1.28 5.42-6.08 5.42-1.77 0-5.92 0-5.92-7.58 0-2.35-1.9-4.26-4.25-4.26h-10.83c-2.25 0-4.11 1.76-4.25 4-0.03 0.47-0.6 11.59 6.75 19.41 4.54 4.82 10.94 7.27 19 7.27 9.49 0 25.42-3.74 25.42-28.76v-39.66c0-2.35-1.91-4.25-4.26-4.25z"/>
		<path id="&lt;Path&gt;" class="s6" d="m322.18 263.45c-11.26-1.96-14.48 7.51-14.48 7.51l13.05 10.55c0 0 6.61 2.32 8.58-1.61 1.96-3.93 4.11-14.48-7.15-16.45z"/>
		<path id="&lt;Path&gt;" class="s7" d="m309.95 270.78c-47.9-7.15-64.1 37.9-64.1 37.9l42.72 28.06c0.72 1.08 16.98 4.12 31.28 1.97 14.3-2.14 37.72-5.18 48.45-17.88-4.83-26.99-14.01-42.9-58.35-50.05z"/>
		<path id="&lt;Path&gt;" class="s3" d="m317.33 275.01q-3.71-0.76-7.83-1.43c-3.25-0.48-6.49-0.73-9.61-0.73-32.49 0-46.77 26.31-50.41 34.46 1.81-0.33 3.8-1.02 6.02-2.21 14.08-29.39 47.08-30.97 61.83-30.09z"/>
		<path id="&lt;Path&gt;" class="s8" d="m336.3 323.16c0 0 2.29 4.23 5.77 8.55 8.99-2.34 17.68-5.89 23.19-11.73-2.93-15.59-7.67-26.74-19.69-34.61 5.73 5.78 13.17 15.74 13.61 28.85-11.44 3.04-22.88 8.94-22.88 8.94z"/>
		<path id="&lt;Path&gt;" class="s9" d="m320.75 272.75c0 0 17.16 5.36 15.91 47.19"/>
		<path id="&lt;Path&gt;" class="s10" d="m380.1 316.72c-14.48-1.78-31.29 5.72-31.29 5.72l0.18 0.72c0 0-12.51 3.75 5.54 8.76 18.06 5 29.68 1.79 35.22-2.51 5.54-4.29 4.83-10.9-9.65-12.69z"/>
		<path id="&lt;Path&gt;" class="s7" d="m284.33 301.67c-32.32-0.69-54.16 12-67.5 32.33-13.33 20.33-13.33 48.83-3.5 64.5 9.84 15.67 21.67 18.04 21.67 18.04 0 0-11.17 7.46-26.17 7.13-15-0.34-24.66-11.84-20.16-23.5 4.5-11.67 8.5-23.17 3.33-35.5-5.17-12.34-16.83-15.17-25.5-13.67-8.67 1.5-11 7.67-4.67 10.17 6.34 2.5 18.34 8.5 12 23.83-6.33 15.33-11.33 21.83-5.5 37.33 5.84 15.5 38.46 38.71 76.46 13.55-7.17 12.5-15.12 32.29-30.62 33.62-14.17 1.17-15.34-6.33-20.17-6.5-4.83-0.17-8 5-4.17 11.17 3.84 6.16 21.34 19 40.5 12 19.17-7 32.67-34.34 39.67-43.34 0.5 12.84-0.67 27 10.67 34.5 11.33 7.5 6.66 16.5 4.5 18.17 6.5 4.67 30.83-2.83 16.16-28.67-7.5-14.5-1.33-21.33 1.67-21.83 4 0.17 13 15 25 27.17 12 12.16 30 17.33 41.83 14.5 11.84-2.84 22.5-12.84 21.84-21.5-0.67-8.67-7.5-5.5-10.84-2.34-3.33 3.17-20.33 11.34-35.5-4.66-14.66-15.17-12.66-22.17-12.66-22.17 0 0 16.66 12 37.33 13.17 20.67 1.16 37.67-8.84 44.67-25.17 7-16.33-2.17-28.83 0-43.67 2.16-14.83 18.66-18.16 19.66-21.16 1-3-6.66-10-18.83-6-12.17 4-24.67 19.33-20.67 40.16 4 20.84-3.83 30.34-20 31.5-16.16 1.17-25.83-7.83-25.83-7.83 0 0 24-6.5 28.67-36.17 4.66-29.66-11.17-54.5-40.5-65.16-29.34-10.67-45-13.84-52.84-14z"/>
		<path id="&lt;Path&gt;" class="s5" d="m256.92 349.58c-10.09-2.91-18.42 4.34-20 12-1.59 7.67 3.83 6.67 4.83 4.17 1-2.5 2.58-8.09 10.33-8.25 4.09-0.08 8.17 4.67 9.17 7.33 1 2.67 4.67 3.09 5.58 1.09 0.92-2 0.17-13.42-9.91-16.34z"/>
		<path id="&lt;Path&gt;" class="s5" d="m330.67 349.83c-10.09-2.91-18.42 4.34-20 12-1.59 7.67 4.13 6.25 5.41 3.88 1.42-2.63 2.9-8.09 10.65-8.25 4.08-0.08 7.6 3.59 8.27 7.59 0.47 2.81 4.64 3.12 5.55 1.12 0.92-2 0.2-13.42-9.88-16.34z"/>
		<path id="&lt;Compound Path&gt;" fill-rule="evenodd" class="s5" d="m308.17 390.58c-3.67 5.92-11.09 13-21.5 12.09-10.42-0.92-19.25-10.5-19.67-17.42-0.42-6.92 2.91-7.45 5.83-6.75 14.59 3.5 25.84 1.42 31.5 0 6.09-1 7.5 6.17 3.84 12.08zm-9.59 2.92c0 0-1.25-2.75-10.16-3.08-8.92-0.34-10.75 3-10.75 3 0 0 1.75 4 10.16 4.41 8.42 0.42 10.75-4.33 10.75-4.33z"/>
		<path id="&lt;Path&gt;" class="s9" d="m284.33 301.67c-32.32-0.69-54.16 12-67.5 32.33-13.33 20.33-13.33 48.83-3.5 64.5 9.84 15.67 21.67 18.04 21.67 18.04 0 0-11.17 7.46-26.17 7.13-15-0.34-24.66-11.84-20.16-23.5 4.5-11.67 8.5-23.17 3.33-35.5-5.17-12.34-16.83-15.17-25.5-13.67-8.67 1.5-11 7.67-4.67 10.17 6.34 2.5 18.34 8.5 12 23.83-6.33 15.33-11.33 21.83-5.5 37.33 5.84 15.5 38.46 38.71 76.46 13.55-7.17 12.5-15.12 32.29-30.62 33.62-14.17 1.17-15.34-6.33-20.17-6.5-4.83-0.17-8 5-4.17 11.17 3.84 6.16 21.34 19 40.5 12 19.17-7 32.67-34.34 39.67-43.34 0.5 12.84-0.67 27 10.67 34.5 11.33 7.5 6.66 16.5 4.5 18.17 6.5 4.67 30.83-2.83 16.16-28.67-7.5-14.5-1.33-21.33 1.67-21.83 4 0.17 13 15 25 27.17 12 12.16 30 17.33 41.83 14.5 11.84-2.84 22.5-12.84 21.84-21.5-0.67-8.67-7.5-5.5-10.84-2.34-3.33 3.17-20.33 11.34-35.5-4.66-14.66-15.17-12.66-22.17-12.66-22.17 0 0 16.66 12 37.33 13.17 20.67 1.16 37.67-8.84 44.67-25.17 7-16.33-2.17-28.83 0-43.67 2.16-14.83 18.66-18.16 19.66-21.16 1-3-6.66-10-18.83-6-12.17 4-24.67 19.33-20.67 40.16 4 20.84-3.83 30.34-20 31.5-16.16 1.17-25.83-7.83-25.83-7.83 0 0 24-6.5 28.67-36.17 4.66-29.66-11.17-54.5-40.5-65.16-29.34-10.67-45-13.84-52.84-14z"/>
		<path id="&lt;Path&gt;" class="s9" d="m284.33 301.67c-32.32-0.69-54.16 12-67.5 32.33-13.33 20.33-13.33 48.83-3.5 64.5 9.84 15.67 21.67 18.04 21.67 18.04 0 0-11.17 7.46-26.17 7.13-15-0.34-24.66-11.84-20.16-23.5 4.5-11.67 8.5-23.17 3.33-35.5-5.17-12.34-16.83-15.17-25.5-13.67-8.67 1.5-11 7.67-4.67 10.17 6.34 2.5 18.34 8.5 12 23.83-6.33 15.33-11.33 21.83-5.5 37.33 5.84 15.5 38.46 38.71 76.46 13.55-7.17 12.5-15.12 32.29-30.62 33.62-14.17 1.17-15.34-6.33-20.17-6.5-4.83-0.17-8 5-4.17 11.17 3.84 6.16 21.34 19 40.5 12 19.17-7 32.67-34.34 39.67-43.34 0.5 12.84-0.67 27 10.67 34.5 11.33 7.5 6.66 16.5 4.5 18.17 6.5 4.67 30.83-2.83 16.16-28.67-7.5-14.5-1.33-21.33 1.67-21.83 4 0.17 13 15 25 27.17 12 12.16 30 17.33 41.83 14.5 11.84-2.84 22.5-12.84 21.84-21.5-0.67-8.67-7.5-5.5-10.84-2.34-3.33 3.17-20.33 11.34-35.5-4.66-14.66-15.17-12.66-22.17-12.66-22.17 0 0 16.66 12 37.33 13.17 20.67 1.16 37.67-8.84 44.67-25.17 7-16.33-2.17-28.83 0-43.67 2.16-14.83 18.66-18.16 19.66-21.16 1-3-6.66-10-18.83-6-12.17 4-24.67 19.33-20.67 40.16 4 20.84-3.83 30.34-20 31.5-16.16 1.17-25.83-7.83-25.83-7.83 0 0 24-6.5 28.67-36.17 4.66-29.66-11.17-54.5-40.5-65.16-29.34-10.67-45-13.84-52.84-14z"/>
		<path id="&lt;Path&gt;" class="s8" d="m352.94 412.35c6.78-3.42 18.81-12.16 21.93-31.96 2.87-18.27-2.44-34.74-14.33-46.84 9.58 16.73 20.95 48.76-7.6 78.8z"/>
		<path id="&lt;Path&gt;" class="s8" d="m385.5 441.5c-19.81 3.76-39.8-2.66-48.5-6.08 5.38 3.26 18.27 10.08 33.16 10.92q1.55 0.08 3.09 0.08c17.71 0 32.59-9.02 38.81-23.54 2.27-5.28 2.68-10.13 2.35-14.9-5.41 14.41-14.6 30.8-28.91 33.52z"/>
		<path id="&lt;Path&gt;" class="s8" d="m294.83 466.17c6.1 11.76 6.22 19.83 2.5 25.77 1.67-1.01 3.17-2.39 4.23-4.2 2.77-4.77 1.85-11.52-2.69-19.51q-0.03-0.05-0.05-0.09c-5.53-10.69-3.97-17.41-2.45-20.56-3.7 3.35-6.44 9.13-1.54 18.59z"/>
		<path id="&lt;Path&gt;" class="s8" d="m244.5 466.83c-7.61 9.18-18.2 15.01-29.28 18.3q1.8 0.22 3.67 0.24c3.57 0 7.09-0.63 10.47-1.87 14.03-5.12 25.24-22.47 32.66-33.95 1.47-2.28 2.81-4.34 4.02-6.08-4.64 4.54-12.94 13-21.54 23.36z"/>
		<path id="&lt;Path&gt;" class="s8" d="m180.19 433.21c7.12 5.98 17.7 10.97 30.56 10.97 10.39 0 20.83-3.29 31.07-9.77-27.14 12.21-48.02 6.67-61.63-1.2z"/>
		<path id="&lt;Path&gt;" class="s8" d="m188.17 383.17c-3.7 9.49-4.06 17.03-3.45 22.3q0.09-3.16 1.3-6.32c4.71-12.22 7.95-22.44 3.36-33.39-0.78-1.87-1.71-3.45-2.74-4.8 2.94 7 4.38 14.88 1.53 22.21z"/>
		<path id="&lt;Path&gt;" class="s3" d="m240.5 318.5c15.2-10.86 34.42-13.46 48.82-13.58-2.03-0.26-3.7-0.39-5.05-0.42q-1.22-0.03-2.42-0.03c-28.05 0-49.12 10.46-62.65 31.08-13.26 20.23-12.13 47.65-3.47 61.44 3 4.78 6.17 8.22 9.07 10.7-23.45-26.82-10.99-70.12 15.7-89.19z"/>
		<path id="&lt;Path&gt;" class="s3" d="m196.5 469.83c29.04 14.05 40.47-7.43 44.7-21.45-6.18 11.15-14.07 22.85-26.79 23.94q-1.62 0.14-3.11 0.14c-8.1 0-12-3.02-14.57-5.02-1.34-1.04-2.08-1.58-2.83-1.61h-0.13c-1.08 0-1.93 0.47-2.41 1.33-0.75 1.35-0.42 3.41 0.88 5.51 0.6 0.96 1.63 2.14 2.99 3.37-0.54-3.54-0.39-6.21 1.27-6.21z"/>
		<path id="&lt;Path&gt;" class="s3" d="m401.83 389.5c-3.71-20.69 9.39-30.29 20.88-34.7q-0.05 0-0.1 0-3 0-6.22 1.06c-10.1 3.32-22.6 16.98-18.77 36.94 2.19 11.44 1.01 20.24-3.53 26.16-3.95 5.15-10.36 8.07-19.05 8.7q-0.93 0.05-1.87 0.07c20.4 2.86 32.64-12.96 28.66-38.23z"/>
		<path id="&lt;Compound Path&gt;" class="s5" d="m135.82 365.49q-1.61 5.05-6.08 6.55-0.4 0.13-0.73 0.03-0.13-0.04-0.22-0.11-0.46-0.26-0.63-0.75l-0.95-2.79q-0.15-0.45 0.09-0.87 0.24-0.42 0.7-0.6 1.89-0.71 2.4-2.31 0.49-1.52-0.23-2.58-0.71-1.05-3.05-1.79l-14.93-4.76q-0.49-0.16-0.73-0.62-0.23-0.46-0.08-0.92l1.19-3.76q0.15-0.46 0.61-0.7 0.46-0.24 0.95-0.08l15.39 4.91q2.53 0.8 4.23 2.3 1.7 1.49 2.32 3.79 0.63 2.31-0.25 5.06z"/>
		<path id="&lt;Compound Path&gt;" fill-rule="evenodd" class="s5" d="m144.82 333.83q1.92 4.6-0.41 9.57-2.34 4.97-7.1 6.43-4.77 1.46-10.55-1.25-5.75-2.7-7.57-7.24-1.82-4.53 0.53-9.53 2.35-5 7-6.5 4.65-1.49 10.4 1.21 5.78 2.71 7.7 7.31zm-9.11 10.06q2.67-0.41 3.79-2.79 1.12-2.38-0.28-4.72-1.4-2.33-4.87-3.96-3.44-1.61-6.04-1.16-2.59 0.46-3.71 2.84-1.12 2.38 0.19 4.66 1.32 2.27 4.76 3.88 3.5 1.65 6.16 1.25z"/>
		<path id="&lt;Compound Path&gt;" class="s5" d="m157 321.06q-2.97 4.47-7.08 4.98-4.11 0.51-9.57-3.13l-10.58-7.03q-0.43-0.29-0.53-0.79-0.1-0.51 0.17-0.92l2.16-3.25q0.27-0.4 0.78-0.51 0.5-0.1 0.93 0.19l11.13 7.4q3.04 2.02 4.93 1.98 1.9-0.04 3.15-1.92 1.26-1.89 0.57-3.69-0.69-1.8-3.71-3.81l-11.13-7.4q-0.43-0.28-0.53-0.79-0.09-0.5 0.19-0.94l2.03-3.05q0.29-0.43 0.79-0.52 0.49-0.09 0.92 0.2l10.58 7.03q5.49 3.65 6.63 7.57 1.15 3.93-1.83 8.4z"/>
		<path id="&lt;Compound Path&gt;" fill-rule="evenodd" class="s5" d="m178.13 292.45q0.2 0.03 0.34 0.16 0.14 0.13 0.2 0.32 0.12 0.39-0.16 0.7l-3.11 3.49q-0.81 0.91-2 0.64l-8.81-2.2q-0.18-0.01-0.27 0.09l-1.83 2.06q-0.12 0.13-0.01 0.22l5.88 5.24q0.38 0.34 0.42 0.84 0.04 0.5-0.31 0.89l-2.59 2.92q-0.35 0.39-0.86 0.42-0.52 0.04-0.9-0.31l-17.8-15.83q-0.38-0.35-0.41-0.86-0.03-0.52 0.32-0.91l5.65-6.35q6.91-7.76 13.1-2.25 4.02 3.58 2.68 8.31-0.04 0.15 0.11 0.19zm-24.64-2.75q-0.12 0.13-0.01 0.22l5.05 4.5q0.1 0.09 0.22-0.04l1.78-2q1.53-1.72 1.6-3.23 0.07-1.5-1.32-2.74-1.34-1.19-2.65-0.84-1.31 0.35-2.89 2.12z"/>
		<path id="&lt;Compound Path&gt;" class="s5" d="m181.7 290.66q-0.4 0.33-0.92 0.29-0.51-0.04-0.85-0.43l-15.38-18.19q-0.33-0.4-0.28-0.91 0.04-0.51 0.44-0.85l3.06-2.59q0.93-0.79 2.1-0.33l12.03 4.89 5.67 2.71q0.09 0.05 0.16 0 0.06-0.06-0.03-0.12-4.9-4.49-6.86-6.81l-4.81-5.69q-0.34-0.4-0.29-0.91 0.04-0.52 0.44-0.85l2.75-2.32q0.37-0.32 0.88-0.28 0.52 0.04 0.85 0.44l15.38 18.19q0.33 0.39 0.29 0.91-0.05 0.51-0.42 0.82l-3.09 2.62q-0.93 0.78-2.07 0.3l-12.09-4.96-5.6-2.68q-0.1-0.06-0.16 0-0.07 0.05 0 0.13 0.38 0.4 2.05 1.97 1.67 1.57 2.77 2.68 1.1 1.11 2.01 2.19l4.84 5.72q0.33 0.4 0.29 0.91-0.05 0.51-0.42 0.83z"/>
		<path id="&lt;Compound Path&gt;" class="s5" d="m201.48 274.74q-0.44 0.28-0.95 0.17-0.5-0.11-0.78-0.55l-12.77-20.1q-0.28-0.44-0.17-0.94 0.12-0.5 0.56-0.78l12.12-7.71q0.44-0.28 0.93-0.16 0.49 0.12 0.77 0.56l1.48 2.33q0.28 0.43 0.18 0.93-0.1 0.49-0.54 0.77l-7.65 4.86q-0.15 0.1-0.08 0.21l2.47 3.88q0.07 0.11 0.22 0.02l6.32-4.02q0.44-0.28 0.93-0.16 0.49 0.12 0.77 0.55l1.52 2.39q0.28 0.44 0.18 0.93-0.1 0.5-0.54 0.78l-6.33 4.02q-0.15 0.09-0.08 0.21l2.84 4.45q0.07 0.12 0.22 0.03l7.97-5.07q0.44-0.28 0.95-0.17 0.5 0.11 0.78 0.55l1.52 2.38q0.28 0.44 0.16 0.94-0.11 0.51-0.55 0.79z"/>
		<path id="&lt;Compound Path&gt;" class="s5" d="m223.32 262.04q-0.47 0.22-0.96 0.05-0.48-0.17-0.71-0.64l-3.4-7.13q-0.06-0.13-0.18-0.22l-13.46-11.07q-0.13-0.12-0.19-0.25-0.11-0.22-0.09-0.42 0.06-0.44 0.44-0.63l3.9-1.85q0.5-0.24 1.05-0.16 0.54 0.09 0.95 0.46l3.63 3.48q0.59 0.6 4.41 4.32 0.03 0.06 0.11 0.02 0.08-0.03 0.05-0.09-0.05-0.67-0.51-6.19l-0.42-5q-0.03-0.56 0.25-1.03 0.27-0.48 0.77-0.72l3.81-1.81q0.38-0.18 0.76 0.06 0.17 0.11 0.28 0.33 0.06 0.12 0.07 0.31l0.08 17.43q-0.01 0.16 0.05 0.28l3.4 7.14q0.22 0.47 0.05 0.95-0.17 0.49-0.65 0.71z"/>
		<path id="&lt;Compound Path&gt;" fill-rule="evenodd" class="s5" d="m263.43 244.94q-2.34 4.39-7.67 5.73-5.32 1.34-9.47-1.43-4.14-2.77-5.7-8.96-1.55-6.16 0.81-10.44 2.36-4.28 7.72-5.62 5.36-1.35 9.46 1.31 4.1 2.66 5.65 8.82 1.55 6.19-0.8 10.59zm-13.54-0.7q2 1.82 4.55 1.17 2.55-0.64 3.48-3.2 0.92-2.56-0.02-6.28-0.92-3.68-2.92-5.4-1.99-1.73-4.55-1.09-2.55 0.64-3.48 3.1-0.93 2.46 0 6.14 0.94 3.75 2.94 5.56z"/>
		<path id="&lt;Compound Path&gt;" class="s5" d="m271.71 246.89q-0.52 0.06-0.92-0.26-0.4-0.33-0.46-0.84l-2.5-23.69q-0.05-0.51 0.27-0.91 0.33-0.4 0.85-0.46l14.39-1.52q0.52-0.05 0.9 0.27 0.39 0.33 0.44 0.84l0.29 2.75q0.05 0.51-0.25 0.91-0.31 0.4-0.83 0.45l-9.12 0.96q-0.17 0.02-0.16 0.16l0.57 5.42q0.02 0.18 0.2 0.16l7.62-0.81q0.52-0.05 0.91 0.25 0.38 0.31 0.43 0.82l0.3 2.82q0.05 0.48-0.26 0.88-0.31 0.39-0.83 0.45l-7.62 0.81q-0.18 0.01-0.16 0.19l0.91 8.58q0.05 0.51-0.26 0.91-0.31 0.4-0.82 0.45z"/>
		<path id="&lt;Compound Path&gt;" class="s5" d="m311.6 246.49q-2.78-0.22-5.09-1.26-2.32-1.04-3.98-2.84-1.66-1.79-2.47-4.44-0.81-2.66-0.56-5.93 0.25-3.2 1.49-5.74 1.24-2.53 3.17-4.12 1.92-1.58 4.34-2.33 2.42-0.75 5.09-0.54 4.35 0.33 7.35 3.16 0.39 0.38 0.38 0.89 0 0.52-0.38 0.88l-1.97 2.03q-0.35 0.35-0.85 0.35-0.51-0.01-0.9-0.35-1.64-1.41-3.83-1.58-2.99-0.23-5.02 1.83-2.03 2.06-2.32 5.81-0.31 4 1.34 6.27 1.64 2.27 5.29 2.55 1.46 0.12 2.44-0.4 0.11-0.09 0.13-0.23l0.3-3.92q0.01-0.18-0.13-0.19l-2.81-0.21q-0.52-0.04-0.86-0.42-0.34-0.37-0.3-0.88l0.21-2.72q0.03-0.49 0.43-0.82 0.39-0.33 0.91-0.29l7.41 0.57q0.48 0.04 0.82 0.43 0.34 0.39 0.3 0.87l-0.76 9.84q-0.1 1.31-1.09 1.93-1.62 0.98-3.72 1.47-2.1 0.5-4.36 0.33z"/>
		<path id="&lt;Compound Path&gt;" fill-rule="evenodd" class="s5" d="m345.26 248.76q-4.1 2.83-9.45 1.59-5.34-1.25-7.76-5.61-2.42-4.36-0.97-10.58 1.44-6.18 5.5-8.91 4.05-2.72 9.43-1.46 5.38 1.25 7.81 5.49 2.43 4.24 0.99 10.42-1.45 6.22-5.55 9.06zm-11.73-6.82q0.95 2.53 3.51 3.13 2.57 0.6 4.56-1.26 1.99-1.86 2.86-5.59 0.87-3.7-0.12-6.14-0.99-2.45-3.55-3.05-2.57-0.6-4.52 1.16-1.95 1.77-2.81 5.46-0.88 3.77 0.07 6.29z"/>
		<path id="&lt;Compound Path&gt;" fill-rule="evenodd" class="s5" d="m370.68 258.44q-4.51 2.13-9.58 0.03-5.07-2.11-6.75-6.8-1.67-4.7 0.77-10.6 2.44-5.86 6.88-7.89 4.45-2.02 9.55 0.1 5.11 2.11 6.81 6.69 1.71 4.58-0.73 10.44-2.44 5.9-6.95 8.03zm-10.46-8.64q0.52 2.65 2.96 3.66 2.43 1.01 4.7-0.5 2.26-1.51 3.73-5.05 1.46-3.5 0.88-6.08-0.57-2.57-3-3.58-2.43-1.01-4.65 0.41-2.21 1.42-3.66 4.93-1.48 3.57-0.96 6.21z"/>
		<path id="&lt;Compound Path&gt;" fill-rule="evenodd" class="s5" d="m376.72 265.16q-0.44-0.28-0.56-0.78-0.12-0.5 0.16-0.94l12.6-20.21q0.27-0.44 0.78-0.56 0.5-0.11 0.94 0.17l5.42 3.37q5.38 3.36 6.71 7.95 1.33 4.59-2.18 10.22-1.77 2.84-3.93 4.52-2.16 1.69-4.51 2.12-2.34 0.43-4.77-0.15-2.43-0.58-4.95-2.15zm7.13-1.74q-0.09 0.14 0.05 0.24l0.6 0.36q2.95 1.85 5.58 1.25 2.64-0.59 4.98-4.34 1.2-1.94 1.61-3.57 0.4-1.64-0.01-2.92-0.42-1.28-1.28-2.26-0.87-0.99-2.32-1.89l-0.59-0.37q-0.15-0.09-0.22 0.02z"/>
		<path id="&lt;Compound Path&gt;" class="s5" d="m409.02 289.06q-0.4-0.39-0.48-0.93-0.08-0.54 0.16-1.03l11.66-22.14q0.07-0.13 0.17-0.23 0.19-0.19 0.49-0.24 0.46-0.08 0.79 0.24l3.05 3.01q0.4 0.39 0.46 0.92 0.07 0.53-0.22 1.02l-5.6 9.6q-0.75 1.3-2.23 3.72-1.48 2.42-2.2 3.65-0.02 0.07 0.04 0.13 0.06 0.07 0.14 0.04 1.21-0.74 3.61-2.25 2.4-1.51 3.69-2.28l9.5-5.75q0.49-0.3 1.02-0.24 0.53 0.06 0.92 0.45l2.86 2.82q0.34 0.34 0.28 0.81-0.05 0.29-0.24 0.49-0.1 0.1-0.22 0.17l-22.02 11.94q-0.48 0.25-1.02 0.17-0.54-0.07-0.94-0.46z"/>
		<path id="&lt;Compound Path&gt;" class="s5" d="m420.88 301.74q-0.33-0.41-0.28-0.92 0.05-0.51 0.45-0.84l18.44-15.08q0.4-0.33 0.91-0.28 0.51 0.06 0.84 0.46l2.47 3.03q0.34 0.4 0.28 0.9-0.06 0.5-0.46 0.83l-18.44 15.08q-0.4 0.32-0.91 0.28-0.5-0.04-0.83-0.44z"/>
		<path id="&lt;Compound Path&gt;" fill-rule="evenodd" class="s5" d="m427.67 310.12q-0.28-0.44-0.18-0.95 0.1-0.5 0.54-0.78l19.93-13.05q0.43-0.28 0.94-0.17 0.5 0.1 0.79 0.54l4.39 6.71q5.42 8.29-0.04 11.86-1.5 0.98-3.38 1.08-1.87 0.1-3.21-0.81-0.04-0.06-0.11-0.01-0.07 0.05-0.04 0.1 0.66 2.08 0.06 3.99-0.61 1.92-2.69 3.28-2.16 1.42-4.44 1.22-2.27-0.2-4.2-1.69-1.92-1.49-3.55-3.97zm7 1.55q-0.15 0.09-0.05 0.24l1.64 2.5q2.56 3.91 5.39 2.06 1.33-0.87 1.3-2.2-0.03-1.34-1.34-3.35l-1.65-2.51q-0.09-0.15-0.24-0.05zm9.22-6.03q-0.12 0.07-0.02 0.22l1.35 2.07q1.09 1.66 2.28 2.05 1.18 0.4 2.37-0.38 1.15-0.76 1.16-1.91 0.01-1.15-1.1-2.84l-1.35-2.07q-0.1-0.15-0.24-0.05z"/>
		<path id="&lt;Compound Path&gt;" class="s5" d="m439.77 329.58q-0.23-0.48-0.06-0.96 0.17-0.49 0.64-0.71l21.48-10.3q0.47-0.22 0.95-0.05 0.49 0.17 0.71 0.65l6.21 12.95q0.23 0.47 0.05 0.94-0.18 0.47-0.64 0.7l-2.49 1.19q-0.47 0.22-0.95 0.07-0.48-0.16-0.7-0.63l-3.92-8.18q-0.08-0.15-0.2-0.1l-4.14 1.99q-0.13 0.06-0.05 0.22l3.24 6.76q0.23 0.47 0.05 0.94-0.18 0.47-0.64 0.69l-2.56 1.23q-0.46 0.22-0.94 0.06-0.48-0.16-0.7-0.63l-3.24-6.76q-0.08-0.15-0.2-0.09l-4.77 2.28q-0.12 0.06-0.05 0.22l4.09 8.52q0.22 0.47 0.06 0.95-0.17 0.49-0.64 0.72l-2.55 1.22q-0.47 0.22-0.95 0.05-0.49-0.17-0.72-0.65z"/>
		<path id="&lt;Compound Path&gt;" class="s5" d="m450.11 355.21q-0.75-2.24-0.78-4.72-0.03-2.47 0.73-4.75 0.18-0.54 0.77-0.74 0.42-0.14 0.84 0.01l2.98 1.17q0.46 0.18 0.67 0.64 0.21 0.46 0.08 0.95-0.95 3.33-0.11 5.85 0.55 1.61 1.4 2.25 0.85 0.63 1.9 0.28 0.91-0.31 1.17-1.17 0.26-0.86 0.4-2.82 0.03-0.34 0.05-0.49l0.25-3.69q0.14-2.51 1.37-4.53 1.24-2.02 3.76-2.86 3.17-1.07 6.21 0.77 3.05 1.85 4.38 5.81 1.4 4.16-0.02 8.14-0.2 0.51-0.68 0.71-0.48 0.19-0.97 0.03l-2.45-0.9q-0.5-0.17-0.73-0.64-0.23-0.48-0.1-0.96 0.58-2.48-0.15-4.66-0.48-1.42-1.3-2.03-0.83-0.6-1.81-0.27-0.39 0.13-0.64 0.42-0.25 0.28-0.4 0.59-0.15 0.31-0.25 0.95-0.09 0.64-0.11 1.07-0.02 0.43-0.08 1.33 0.01 0.25-0.01 0.41l-0.18 3.56q-0.3 5.61-5.17 7.25-1.57 0.53-3.2 0.36-1.62-0.17-3.11-1.01-1.48-0.84-2.72-2.47-1.24-1.62-1.99-3.84z"/>
		<path id="&lt;Path&gt;" class="s5" d="m224.83 309.87c0 0-19-1.33-22.85-10.76-3.86-9.44 2.12-14.62 13.42-10.23 1.06-11.16 15.67-12.49 17.54-2.13 1.85 10.36-8.11 23.12-8.11 23.12z"/>
		<path id="&lt;Path&gt;" class="s3" d="m297.29 195.33c97.21 0 171.28 56.78 201.19 138.75-29.15-85.19-105.38-141.38-202.27-141.38-122.4 0-221.99 100.86-221.99 224.83 0 11.03 0.8 21.87 2.31 32.48q-1.69-13.89-1.7-28.26c0-124.54 101.48-226.42 222.46-226.42z"/>
		<path id="&lt;Path&gt;" class="s1" d="m515.88 481l-9.25-7.13"/>
		<path id="&lt;Path&gt;" class="s1" d="m519.13 468.25l-9.63-7"/>
		<path id="&lt;Path&gt;" class="s1" d="m521.63 456.75l-9.13-7"/>
		<path id="&lt;Path&gt;" class="s1" d="m523.13 443.63l-9.38-6.63"/>
		<path id="&lt;Path&gt;" class="s1" d="m524.25 430l-10.5-6.75"/>
		<path id="&lt;Path&gt;" class="s1" d="m524.5 416.63l-9.63-5.63"/>
		<path id="&lt;Path&gt;" class="s1" d="m524 403.88l-9.88-6.38"/>
		<path id="&lt;Path&gt;" class="s1" d="m523.13 390.25l-10.5-6.38"/>
		<path id="&lt;Path&gt;" class="s1" d="m521.13 377.63l-9.25-5.63"/>
		<path id="&lt;Path&gt;" class="s1" d="m518.63 363.75l-9.13-4.5"/>
		<path id="&lt;Path&gt;" class="s1" d="m515.63 351.38l-10.25-5.75"/>
		<path id="&lt;Path&gt;" class="s11" d="m511.75 338.38l-10.25-4.5"/>
		<path id="&lt;Path&gt;" class="s11" d="m506.5 325.75l-9.63-5"/>
		<path id="&lt;Path&gt;" class="s12" d="m501 313.75l-8.63-4.25"/>
		<path id="&lt;Path&gt;" class="s12" d="m495.25 302.25l-9-4.25"/>
		<path id="&lt;Path&gt;" class="s12" d="m487.63 290.38l-7.75-3.75"/>
		<path id="&lt;Path&gt;" class="s12" d="m480.38 278.63l-7.5-2.88"/>
		<path id="&lt;Path&gt;" class="s12" d="m470.5 267.13l-6.13-2.63"/>
		<path id="&lt;Path&gt;" class="s12" d="m461.13 256.25l-7-1.63"/>
		<path id="&lt;Path&gt;" class="s12" d="m451.75 247.5l-4.13-0.13"/>
		<path id="&lt;Path&gt;" class="s12" d="m196.25 627.13l-1.13-5.88"/>
		<path id="&lt;Path&gt;" class="s12" d="m208.63 633.25l-5-7"/>
		<path id="&lt;Path&gt;" class="s12" d="m220.63 638.13l-5.88-7.63"/>
		<path id="&lt;Path&gt;" class="s12" d="m233.25 643l-6.25-7.88"/>
		<path id="&lt;Path&gt;" class="s12" d="m247 647.13l-6.38-8.25"/>
		<path id="&lt;Path&gt;" class="s12" d="m260.13 649.75l-7.88-8.25"/>
		<path id="&lt;Path&gt;" class="s12" d="m273.25 652.25l-6.75-8.5"/>
		<path id="&lt;Path&gt;" class="s1" d="m482.25 554.63l-8.5-8.88"/>
		<path id="&lt;Path&gt;" class="s1" d="m473.88 565.75l-8.38-8.38"/>
		<path id="&lt;Path&gt;" class="s1" d="m465 576.75l-8.5-8.75"/>
		<path id="&lt;Path&gt;" class="s1" d="m455.88 586.38l-8.38-7.88"/>
		<path id="&lt;Path&gt;" class="s1" d="m446 596.38l-8.13-8"/>
		<path id="&lt;Path&gt;" class="s1" d="m436.5 604.13l-9-7.5"/>
		<path id="&lt;Path&gt;" class="s1" d="m425.13 613.13l-8-8.5"/>
		<path id="&lt;Path&gt;" class="s1" d="m413.88 619.88l-8.88-8.25"/>
		<path id="&lt;Path&gt;" class="s1" d="m402.75 627.13l-8.5-8.88"/>
		<path id="&lt;Path&gt;" class="s1" d="m390.25 633.5l-8.75-8.25"/>
		<path id="&lt;Path&gt;" class="s1" d="m378.13 639.13l-9.5-9.13"/>
		<path id="&lt;Path&gt;" class="s1" d="m365.63 643.25l-8.75-9.25"/>
		<path id="&lt;Path&gt;" class="s1" d="m352.25 646.88l-8.75-8.88"/>
		<path id="&lt;Path&gt;" class="s1" d="m339.75 650.13l-9.25-9.25"/>
		<path id="&lt;Path&gt;" class="s1" d="m326.25 652.25l-8.5-9.13"/>
		<path id="&lt;Path&gt;" class="s1" d="m313.13 653.5l-8.13-9.25"/>
		<path id="&lt;Path&gt;" class="s1" d="m299.5 654l-7.66-10.27"/>
		<path id="&lt;Path&gt;" class="s1" d="m286.25 653l-7.88-9.5"/>
		<path id="&lt;Compound Path&gt;" fill-rule="evenodd" class="s13" d="m288.5 536.83v2.96c0 22-16.67 32-29.33 32h-3c-12.67 0-29.34-10-29.34-32v-2.96c0-22 16.67-32 29.34-32h3c12.66 0 29.33 10 29.33 32zm-12.67 0.5c0-15.33-9.16-21.5-17.83-21.5h-0.67c-8.66 0-17.83 6.17-17.83 21.5v1.96c0 15.33 9.17 21.5 17.83 21.5h0.67c8.67 0 17.83-6.17 17.83-21.5z"/>
		<path id="&lt;Path&gt;" class="s13" d="m330.33 545.5h11.5v12.5c0 0-7 2.79-11.83 2.79h-0.67c-8.66 0-17.83-6.17-17.83-21.5v-1.96c0-15.33 9.17-21.5 17.83-21.5h0.67c5.11 0 10.38 2.17 13.85 7.07l7.62-9.46c-5.87-5.83-13.64-8.61-20.3-8.61h-3c-12.67 0-29.34 10-29.34 32v2.96c0 22 16.67 32 29.34 32 14.83 0 24.5-8.62 24.5-8.62v-27h-22.34z"/>
		<path id="&lt;Path&gt;" class="s13" d="m408.51 506.67l-16.75 54.58-16.76-54.58h-13l21.21 63.5h15.93l22.37-63.5z"/>
		<path id="&lt;Path&gt;" class="s13" d="m202.5 550.83c0 4.5-3.33 9.67-10.33 9.67-7 0-10.17-4.83-10.17-11.83h-10.83c0 0-1.34 22.16 21.5 22.16 12.66 0 21.16-7 21.16-24.5 0-10.25 0-27.29 0-39.66h-11.33c0 0 0 39.66 0 44.16z"/>
	</g>
</svg>